<svg width="44" height="44" viewBox="0 0 44 44" fill="none" xmlns="http://www.w3.org/2000/svg">
<circle cx="21.9998" cy="22" r="5" fill="white" stroke="black" stroke-width="2"/>
<path d="M43.9998 7.29115e-06L32.8462 2.98859L41.0112 11.1536L43.9998 7.29115e-06ZM28.7069 16.7071L38.3429 7.07107L36.9287 5.65686L27.2926 15.2929L28.7069 16.7071Z" fill="black"/>
<path d="M-0.000243593 44L11.1533 41.0114L2.98834 32.8465L-0.000243593 44ZM15.2926 27.2929L5.65661 36.9289L7.07082 38.3432L16.7069 28.7071L15.2926 27.2929Z" fill="black"/>
<path d="M43.9998 44L41.0112 32.8465L32.8462 41.0114L43.9998 44ZM27.2926 28.7071L36.9287 38.3432L38.3429 36.9289L28.7069 27.2929L27.2926 28.7071Z" fill="black"/>
<path d="M-0.000244942 7.29115e-06L2.98834 11.1536L11.1533 2.98859L-0.000244942 7.29115e-06ZM16.7069 15.2929L7.07082 5.65686L5.65661 7.07107L15.2926 16.7071L16.7069 15.2929Z" fill="black"/>
</svg>
