<svg width="68" height="68" viewBox="0 0 68 68" fill="none" xmlns="http://www.w3.org/2000/svg">
<line x1="33.2929" y1="59.7277" x2="59.7277" y2="33.2929" stroke="black" stroke-width="2"/>
<line x1="6.85808" y1="33.2929" x2="33.2929" y2="6.85811" stroke="black" stroke-width="2"/>
<line x1="34.7071" y1="6.85811" x2="61.1419" y2="33.2929" stroke="black" stroke-width="2"/>
<line x1="8.27229" y1="33.2929" x2="34.7071" y2="59.7277" stroke="black" stroke-width="2"/>
<path d="M34 67C37.6259 67 40.5652 64.0607 40.5652 60.4348C40.5652 56.8089 37.6259 53.8696 34 53.8696C30.3742 53.8696 27.4348 56.8089 27.4348 60.4348C27.4348 64.0607 30.3742 67 34 67Z" fill="white" stroke="black" stroke-width="2"/>
<path d="M34 14.1304C37.6259 14.1304 40.5652 11.1911 40.5652 7.56522C40.5652 3.93935 37.6259 1 34 1C30.3742 1 27.4348 3.93935 27.4348 7.56522C27.4348 11.1911 30.3742 14.1304 34 14.1304Z" fill="white" stroke="black" stroke-width="2"/>
<path d="M7.56522 40.5652C11.1911 40.5652 14.1304 37.6259 14.1304 34C14.1304 30.3741 11.1911 27.4348 7.56522 27.4348C3.93935 27.4348 1 30.3741 1 34C1 37.6259 3.93935 40.5652 7.56522 40.5652Z" fill="white" stroke="black" stroke-width="2"/>
<path d="M60.4347 40.5652C64.0606 40.5652 66.9999 37.6259 66.9999 34C66.9999 30.3741 64.0606 27.4348 60.4347 27.4348C56.8089 27.4348 53.8695 30.3741 53.8695 34C53.8695 37.6259 56.8089 40.5652 60.4347 40.5652Z" fill="white" stroke="black" stroke-width="2"/>
<mask id="path-9-outside-1_313_865" maskUnits="userSpaceOnUse" x="4.47934" y="5.30337" width="57.9828" height="57.9828" fill="black">
<rect fill="white" x="4.47934" y="5.30337" width="57.9828" height="57.9828"/>
<path d="M13.0889 48.7817L52.9141 8.95652L59.0435 15.0859L19.2183 54.9111L12.0212 55.9788L13.0889 48.7817Z"/>
</mask>
<path d="M13.0889 48.7817L52.9141 8.95652L59.0435 15.0859L19.2183 54.9111L12.0212 55.9788L13.0889 48.7817Z" fill="white"/>
<path d="M13.0889 48.7817L52.9141 8.95652L59.0435 15.0859L19.2183 54.9111L12.0212 55.9788L13.0889 48.7817Z" stroke="black" stroke-width="4" mask="url(#path-9-outside-1_313_865)"/>
<line x1="15.3855" y1="45.0295" x2="22.9703" y2="52.6142" stroke="black"/>
<line x1="47.8918" y1="12.5233" x2="55.4765" y2="20.1081" stroke="black"/>
</svg>
